<?xml version="1.0" encoding="UTF-8"?>
<svg width="800" height="600" viewBox="0 0 800 600" xmlns="http://www.w3.org/2000/svg">
    <!-- Background -->
    <rect width="800" height="600" fill="#f8fafc"/>
    
    <!-- Dashboard Container -->
    <rect x="40" y="40" width="720" height="520" rx="12" fill="#ffffff" stroke="#e2e8f0" stroke-width="2"/>
    
    <!-- Header -->
    <rect x="40" y="40" width="720" height="60" rx="12" fill="#1e293b"/>
    <text x="80" y="85" font-family="Arial" font-size="24" fill="#ffffff">Dashboard</text>
    
    <!-- Sidebar -->
    <rect x="40" y="100" width="200" height="460" fill="#f1f5f9"/>
    <rect x="60" y="120" width="160" height="40" rx="6" fill="#e2e8f0"/>
    <rect x="60" y="170" width="160" height="40" rx="6" fill="#e2e8f0"/>
    <rect x="60" y="220" width="160" height="40" rx="6" fill="#e2e8f0"/>
    
    <!-- Main Content -->
    <!-- Chart 1 -->
    <rect x="260" y="120" width="480" height="200" rx="8" fill="#ffffff" stroke="#e2e8f0" stroke-width="2"/>
    <rect x="280" y="140" width="440" height="160" rx="4" fill="#f8fafc"/>
    <path d="M280 200 L320 180 L360 190 L400 170 L440 185 L480 175 L520 190 L560 165 L600 180 L640 170 L680 185 L720 175" 
          stroke="#3b82f6" stroke-width="3" fill="none"/>
    
    <!-- Chart 2 -->
    <rect x="260" y="340" width="230" height="200" rx="8" fill="#ffffff" stroke="#e2e8f0" stroke-width="2"/>
    <rect x="280" y="360" width="190" height="160" rx="4" fill="#f8fafc"/>
    <circle cx="375" cy="440" r="60" fill="none" stroke="#3b82f6" stroke-width="3"/>
    <path d="M375 440 L375 380" stroke="#3b82f6" stroke-width="3"/>
    
    <!-- Chart 3 -->
    <rect x="510" y="340" width="230" height="200" rx="8" fill="#ffffff" stroke="#e2e8f0" stroke-width="2"/>
    <rect x="530" y="360" width="190" height="160" rx="4" fill="#f8fafc"/>
    <rect x="550" y="400" width="30" height="80" fill="#3b82f6"/>
    <rect x="590" y="420" width="30" height="60" fill="#3b82f6"/>
    <rect x="630" y="380" width="30" height="100" fill="#3b82f6"/>
    <rect x="670" y="440" width="30" height="40" fill="#3b82f6"/>
</svg> 